<svg id="svg" version="1.1" xmlns="http://www.w3.org/2000/svg" xmlns:xlink="http://www.w3.org/1999/xlink" width="400" height="400" viewBox="0, 0, 400,400"><g id="svgg"><path id="path0" d="M57.343 100.796 C 55.030 101.732,55.200 93.105,55.200 209.467 L 55.200 315.955 56.165 317.078 L 57.131 318.200 198.773 318.302 C 353.381 318.414,342.699 318.570,343.605 316.188 C 343.868 315.494,343.970 278.906,343.902 208.779 L 343.800 102.422 342.889 101.511 L 341.978 100.600 200.089 100.524 C 120.728 100.482,57.822 100.602,57.343 100.796 M305.100 122.314 C 306.930 123.359,306.302 124.253,297.474 133.179 C 292.785 137.921,287.397 143.600,285.502 145.800 C 279.692 152.546,208.054 223.781,206.000 224.856 C 204.478 225.652,203.614 225.798,200.400 225.798 C 194.261 225.800,194.481 225.963,177.728 208.930 C 169.848 200.918,147.984 178.846,129.142 159.882 C 110.301 140.917,94.671 124.980,94.410 124.467 C 93.712 123.093,94.785 122.081,97.144 121.889 C 102.894 121.420,304.255 121.832,305.100 122.314 M81.269 141.346 C 82.221 142.263,83.888 144.091,84.974 145.407 C 86.059 146.723,100.324 161.213,116.674 177.606 C 145.787 206.798,146.400 207.444,146.400 208.961 C 146.400 210.704,143.766 213.467,99.600 258.037 C 77.459 280.381,77.496 280.350,76.719 277.327 C 75.955 274.358,76.539 140.380,77.319 139.810 C 78.337 139.065,79.285 139.434,81.269 141.346 M322.287 142.400 C 323.160 144.123,322.824 277.347,321.945 278.227 C 320.809 279.362,320.207 278.823,301.398 259.820 C 254.714 212.653,253.600 211.487,253.600 209.798 C 253.600 208.130,252.159 209.634,304.641 156.546 C 320.883 140.117,321.059 139.976,322.287 142.400 M171.147 232.919 C 183.106 244.651,189.724 247.663,202.300 247.099 C 212.665 246.634,217.508 244.085,228.456 233.331 C 236.567 225.363,236.612 225.342,239.864 227.956 C 242.492 230.068,269.366 257.200,271.802 260.200 C 272.873 261.520,280.826 269.715,289.475 278.412 C 305.347 294.372,305.916 295.053,304.311 296.177 C 302.951 297.130,96.249 297.130,94.889 296.177 C 93.277 295.048,93.859 294.363,111.337 276.811 C 120.872 267.235,130.038 257.780,131.705 255.800 C 134.737 252.198,158.378 228.483,160.554 226.861 C 162.945 225.077,163.444 225.363,171.147 232.919 " stroke="none" fill="#fcfcfc" fill-rule="evenodd"></path><path id="path1" d="M185.104 1.029 C 184.959 1.174,182.986 1.441,180.720 1.622 C 163.779 2.975,145.455 7.315,127.400 14.252 C 112.821 19.854,102.552 25.251,88.200 34.855 C 84.020 37.652,79.700 40.669,78.600 41.560 C 77.500 42.451,75.610 43.935,74.400 44.859 C 67.333 50.255,50.255 67.333,44.859 74.400 C 43.935 75.610,42.458 77.500,41.576 78.600 C 39.709 80.929,29.200 96.534,29.200 96.977 C 29.200 97.142,28.795 97.837,28.300 98.522 C 25.556 102.319,16.400 120.578,16.400 122.253 C 16.400 122.395,16.045 123.252,15.612 124.156 C 13.818 127.898,11.716 133.773,9.227 142.000 C 6.496 151.027,4.929 157.305,4.539 160.785 C 4.402 162.003,4.143 163.288,3.964 163.639 C 3.519 164.510,2.806 168.653,2.353 173.000 C 2.147 174.980,1.773 178.580,1.522 181.000 C 0.930 186.710,0.930 213.290,1.522 219.000 C 1.773 221.420,2.147 225.020,2.353 227.000 C 2.806 231.347,3.519 235.490,3.964 236.361 C 4.143 236.712,4.402 237.997,4.539 239.215 C 4.784 241.399,6.252 247.898,7.381 251.800 C 7.700 252.900,8.341 255.150,8.807 256.800 C 12.783 270.894,22.581 293.394,28.235 301.415 C 28.694 302.067,29.190 302.932,29.337 303.338 C 29.715 304.382,38.094 316.847,40.673 320.200 C 41.857 321.740,43.448 323.810,44.208 324.800 C 50.206 332.610,67.629 350.094,74.932 355.632 C 76.215 356.604,78.015 357.994,78.932 358.720 C 81.300 360.594,95.261 369.918,98.600 371.855 C 105.502 375.860,107.207 376.807,110.400 378.407 C 128.885 387.669,155.178 395.676,174.000 397.777 C 183.375 398.823,186.450 398.963,200.000 398.963 C 221.049 398.963,229.399 398.041,247.400 393.727 C 256.711 391.495,266.132 388.465,274.600 384.977 C 278.120 383.528,282.170 381.876,283.600 381.306 C 286.347 380.213,292.318 377.181,296.000 375.009 C 297.210 374.296,299.550 372.939,301.200 371.995 C 309.496 367.248,322.772 357.825,330.160 351.440 C 333.870 348.233,349.123 332.873,352.000 329.447 C 353.430 327.744,355.208 325.639,355.952 324.769 C 358.802 321.437,368.544 307.102,371.970 301.200 C 372.928 299.550,374.300 297.210,375.018 296.000 C 378.595 289.978,383.169 279.720,387.948 267.000 C 389.180 263.723,392.249 253.951,392.722 251.800 C 392.964 250.700,393.624 247.917,394.188 245.615 C 394.752 243.313,395.325 240.433,395.461 239.215 C 395.598 237.997,395.857 236.712,396.036 236.361 C 396.676 235.109,397.493 229.454,398.484 219.400 C 399.084 213.315,399.082 186.960,398.480 180.800 C 397.454 170.291,396.689 164.915,396.036 163.639 C 395.857 163.288,395.598 162.003,395.461 160.785 C 395.325 159.567,394.774 156.777,394.237 154.585 C 393.699 152.393,392.959 149.340,392.591 147.800 C 391.231 142.111,385.637 126.172,383.114 120.800 C 382.649 119.810,381.795 117.830,381.216 116.400 C 379.988 113.367,376.352 106.293,373.815 102.000 C 372.840 100.350,371.648 98.280,371.166 97.400 C 368.931 93.316,357.700 77.071,356.232 75.800 C 355.978 75.580,355.336 74.770,354.805 74.000 C 352.988 71.366,348.997 67.050,340.960 59.026 C 330.864 48.948,329.466 47.710,320.343 40.757 C 316.856 38.099,305.373 30.451,301.400 28.140 C 290.151 21.596,286.332 19.739,274.000 14.817 C 257.974 8.421,239.248 3.647,223.800 2.019 C 221.600 1.787,218.900 1.491,217.800 1.361 C 214.882 1.017,185.416 0.718,185.104 1.029 M342.889 101.511 L 343.800 102.422 343.902 208.779 C 343.970 278.906,343.868 315.494,343.605 316.188 C 342.699 318.570,353.381 318.414,198.773 318.302 L 57.131 318.200 56.165 317.078 L 55.200 315.955 55.200 209.467 C 55.200 93.105,55.030 101.732,57.343 100.796 C 57.822 100.602,120.728 100.482,200.089 100.524 L 341.978 100.600 342.889 101.511 M97.144 121.889 C 94.785 122.081,93.712 123.093,94.410 124.467 C 94.671 124.980,110.301 140.917,129.142 159.882 C 147.984 178.846,169.848 200.918,177.728 208.930 C 194.481 225.963,194.261 225.800,200.400 225.798 C 203.614 225.798,204.478 225.652,206.000 224.856 C 208.054 223.781,279.692 152.546,285.502 145.800 C 287.397 143.600,292.785 137.921,297.474 133.179 C 306.302 124.253,306.930 123.359,305.100 122.314 C 304.255 121.832,102.894 121.420,97.144 121.889 M77.319 139.810 C 76.539 140.380,75.955 274.358,76.719 277.327 C 77.496 280.350,77.459 280.381,99.600 258.037 C 143.766 213.467,146.400 210.704,146.400 208.961 C 146.400 207.444,145.787 206.798,116.674 177.606 C 100.324 161.213,86.059 146.723,84.974 145.407 C 80.762 140.300,78.705 138.796,77.319 139.810 M304.641 156.546 C 252.159 209.634,253.600 208.130,253.600 209.798 C 253.600 211.487,254.714 212.653,301.398 259.820 C 320.207 278.823,320.809 279.362,321.945 278.227 C 322.824 277.347,323.160 144.123,322.287 142.400 C 321.059 139.976,320.883 140.117,304.641 156.546 M160.554 226.861 C 158.378 228.483,134.737 252.198,131.705 255.800 C 130.038 257.780,120.872 267.235,111.337 276.811 C 101.802 286.386,94.000 294.521,94.000 294.888 C 94.000 296.916,87.586 296.800,199.600 296.800 C 311.608 296.800,305.200 296.916,305.200 294.889 C 305.200 294.523,298.124 287.108,289.475 278.412 C 280.826 269.715,272.873 261.520,271.802 260.200 C 269.366 257.200,242.492 230.068,239.864 227.956 C 236.612 225.342,236.567 225.363,228.456 233.331 C 217.508 244.085,212.665 246.634,202.300 247.099 C 189.724 247.663,183.106 244.651,171.147 232.919 C 163.444 225.363,162.945 225.077,160.554 226.861 " stroke="none" fill="#040404" fill-rule="evenodd"></path></g></svg>