<svg id="svg" version="1.1" xmlns="http://www.w3.org/2000/svg" xmlns:xlink="http://www.w3.org/1999/xlink" width="400" height="400" viewBox="0, 0, 400,400"><g id="svgg"><path id="path0" d="M209.098 89.811 C 192.249 92.265,181.003 100.098,175.633 113.121 C 172.426 120.898,171.680 126.693,171.259 147.135 L 171.000 159.671 169.878 160.635 C 168.772 161.586,168.636 161.600,160.678 161.602 C 147.233 161.606,148.337 159.795,148.487 181.607 L 148.600 197.978 149.510 198.889 C 150.392 199.772,150.704 199.806,159.800 200.000 C 168.897 200.194,169.207 200.228,170.090 201.111 L 171.000 202.022 171.200 255.646 L 171.400 309.271 172.344 310.035 C 173.414 310.902,214.003 311.254,215.579 310.411 C 216.962 309.671,217.001 308.359,217.200 255.311 L 217.400 202.022 218.310 201.111 C 219.212 200.209,219.349 200.198,232.310 200.000 C 239.510 199.890,245.674 199.661,246.009 199.492 C 247.603 198.686,247.806 197.620,249.611 180.500 C 249.838 178.355,250.190 175.070,250.395 173.200 C 251.776 160.600,253.258 161.605,233.300 161.602 C 215.160 161.599,217.100 163.442,217.277 146.382 L 217.400 134.600 218.642 132.400 C 221.229 127.819,224.550 126.886,239.527 126.527 C 252.996 126.205,251.374 128.638,251.513 108.550 C 251.633 91.216,251.565 90.477,249.754 89.652 C 248.309 88.993,213.786 89.128,209.098 89.811 " stroke="none" fill="#fcfcfc" fill-rule="evenodd"></path><path id="path1" d="M151.200 0.649 C 131.190 5.893,112.695 13.096,100.000 20.590 C 98.790 21.304,96.450 22.671,94.800 23.628 C 88.565 27.244,76.702 35.418,71.937 39.383 C 71.132 40.052,69.249 41.590,67.752 42.800 C 64.238 45.641,45.667 64.207,42.800 67.746 C 41.590 69.240,40.133 71.033,39.562 71.731 C 35.211 77.052,27.163 88.703,23.628 94.800 C 22.671 96.450,21.300 98.790,20.582 100.000 C 13.825 111.376,6.126 130.938,1.139 149.400 C 0.901 150.280,0.548 151.522,0.353 152.160 C -0.500 154.960,-0.066 246.164,0.816 249.507 C 4.941 265.134,10.186 279.462,16.370 291.996 C 17.856 295.008,19.706 298.536,20.480 299.836 C 21.255 301.136,22.671 303.550,23.628 305.200 C 27.330 311.583,35.227 323.039,39.388 328.063 C 40.055 328.868,41.590 330.748,42.800 332.242 C 45.635 335.742,63.185 353.598,65.800 355.643 C 66.900 356.503,68.790 358.026,70.000 359.026 C 77.045 364.851,88.249 372.692,94.800 376.383 C 96.890 377.561,99.253 378.934,100.050 379.435 C 110.515 386.006,132.179 394.501,149.872 398.971 L 153.945 400.000 200.161 400.000 L 246.377 400.000 251.089 398.775 C 253.680 398.101,258.410 396.733,261.600 395.735 C 264.790 394.737,268.030 393.739,268.800 393.516 C 270.488 393.028,278.300 389.929,284.263 387.383 C 288.489 385.578,297.095 381.201,300.092 379.331 C 300.913 378.819,301.698 378.400,301.837 378.400 C 302.884 378.400,317.839 368.528,323.945 363.806 C 326.225 362.043,328.682 360.150,329.405 359.600 C 332.616 357.157,335.142 354.822,344.117 346.000 C 354.570 335.725,356.254 333.829,364.453 323.113 C 367.986 318.496,373.269 310.556,376.372 305.200 C 377.327 303.550,378.657 301.300,379.326 300.200 C 386.187 288.917,393.705 269.989,398.630 251.600 L 399.969 246.600 399.985 200.151 L 400.000 153.703 399.033 149.951 C 396.624 140.602,389.392 119.191,388.045 117.419 C 387.870 117.189,387.442 116.266,387.094 115.369 C 382.909 104.577,369.555 82.680,360.612 71.946 C 359.945 71.146,358.410 69.256,357.200 67.746 C 354.338 64.173,337.796 47.378,334.266 44.460 C 323.926 35.913,313.504 28.444,305.200 23.628 C 303.550 22.671,301.210 21.304,300.000 20.589 C 296.980 18.807,286.811 13.744,283.400 12.325 C 270.209 6.837,261.748 3.965,250.128 1.029 L 246.055 0.000 199.728 0.036 C 160.756 0.067,153.051 0.164,151.200 0.649 M249.754 89.652 C 251.565 90.477,251.633 91.216,251.513 108.550 C 251.374 128.638,252.996 126.205,239.527 126.527 C 224.550 126.886,221.229 127.819,218.642 132.400 L 217.400 134.600 217.277 146.382 C 217.100 163.442,215.160 161.599,233.300 161.602 C 253.258 161.605,251.776 160.600,250.395 173.200 C 250.190 175.070,249.838 178.355,249.611 180.500 C 247.806 197.620,247.603 198.686,246.009 199.492 C 245.674 199.661,239.510 199.890,232.310 200.000 C 219.349 200.198,219.212 200.209,218.310 201.111 L 217.400 202.022 217.200 255.311 C 217.001 308.359,216.962 309.671,215.579 310.411 C 214.003 311.254,173.414 310.902,172.344 310.035 L 171.400 309.271 171.200 255.646 L 171.000 202.022 170.090 201.111 C 169.207 200.228,168.897 200.194,159.800 200.000 C 150.704 199.806,150.392 199.772,149.510 198.889 L 148.600 197.978 148.487 181.607 C 148.337 159.795,147.233 161.606,160.678 161.602 C 168.636 161.600,168.772 161.586,169.878 160.635 L 171.000 159.671 171.259 147.135 C 171.680 126.693,172.426 120.898,175.633 113.121 C 181.003 100.098,192.249 92.265,209.098 89.811 C 213.786 89.128,248.309 88.993,249.754 89.652 " stroke="none" fill="#040404" fill-rule="evenodd"></path></g></svg>