<svg id="svg" version="1.1" xmlns="http://www.w3.org/2000/svg" xmlns:xlink="http://www.w3.org/1999/xlink" width="400" height="400" viewBox="0, 0, 400,400"><g id="svgg"><path id="path0" d="M96.876 89.741 C 94.976 90.795,93.524 94.267,91.582 102.392 C 90.743 105.902,90.676 107.085,90.681 118.248 L 90.687 130.312 92.188 135.161 L 93.689 140.010 92.657 142.105 C 92.089 143.257,90.629 145.460,89.412 147.000 C 88.196 148.540,86.705 150.675,86.100 151.743 C 85.495 152.812,84.112 155.062,83.028 156.743 C 81.943 158.425,80.479 161.330,79.775 163.200 C 79.070 165.070,78.124 167.500,77.673 168.600 C 76.702 170.963,75.710 174.963,74.993 179.400 C 74.709 181.160,74.279 183.107,74.038 183.726 C 73.326 185.556,73.449 209.772,74.183 212.210 C 74.504 213.276,74.878 215.419,75.015 216.974 C 75.152 218.528,75.510 220.700,75.810 221.800 C 76.109 222.900,76.483 224.790,76.641 226.000 C 77.178 230.128,82.669 245.065,84.802 248.200 C 85.401 249.080,86.301 250.610,86.803 251.600 C 90.154 258.208,101.470 270.418,108.400 274.905 C 117.125 280.554,135.454 288.047,143.303 289.174 C 144.896 289.403,147.084 289.862,148.164 290.195 C 149.244 290.528,150.684 290.802,151.364 290.804 C 152.044 290.807,153.410 291.053,154.400 291.351 C 155.390 291.649,157.431 292.023,158.936 292.182 C 163.456 292.660,164.107 294.046,161.389 297.400 C 157.127 302.658,153.969 309.270,153.007 314.951 C 152.607 317.317,150.989 320.658,149.898 321.373 C 148.350 322.387,141.046 324.714,138.511 325.001 C 137.240 325.145,135.300 325.548,134.200 325.897 C 131.781 326.664,124.847 326.767,122.770 326.067 C 121.983 325.801,119.798 325.334,117.913 325.029 C 108.506 323.507,100.495 317.215,92.409 305.000 C 82.814 290.505,73.250 284.188,61.341 284.481 C 52.862 284.689,52.730 288.318,61.000 293.858 C 64.704 296.339,69.393 300.248,70.324 301.629 C 70.832 302.383,72.393 304.301,73.794 305.891 C 75.929 308.314,77.143 310.387,81.298 318.706 C 88.479 333.083,90.419 335.801,96.285 339.699 C 104.081 344.880,111.969 348.150,117.600 348.537 C 119.250 348.650,121.388 349.026,122.350 349.371 C 124.957 350.308,132.540 350.210,136.373 349.191 C 138.008 348.756,140.500 348.400,141.911 348.400 C 143.322 348.400,145.424 348.125,146.581 347.788 C 151.570 346.338,151.600 346.448,151.600 366.400 C 151.600 383.530,151.674 384.306,153.413 385.445 C 155.699 386.943,162.497 388.853,166.800 389.206 C 169.110 389.396,171.984 389.832,173.187 390.175 C 174.408 390.524,176.898 390.800,178.824 390.800 C 180.733 390.800,183.150 391.066,184.236 391.396 C 187.102 392.265,211.376 392.272,214.236 391.404 C 215.522 391.014,217.931 390.807,221.213 390.804 C 224.516 390.801,226.972 390.589,228.413 390.181 C 229.616 389.840,232.220 389.401,234.200 389.204 C 236.180 389.008,238.588 388.566,239.550 388.223 C 240.513 387.880,241.634 387.600,242.042 387.600 C 243.814 387.600,248.066 385.837,249.016 384.708 L 250.000 383.539 250.000 357.068 C 250.000 331.797,249.964 330.471,249.200 327.800 C 248.665 325.930,248.400 323.803,248.400 321.386 C 248.400 314.856,243.852 303.023,239.445 298.085 C 236.032 294.261,236.314 292.818,240.600 292.183 C 241.700 292.020,243.298 291.642,244.150 291.343 C 245.003 291.044,246.630 290.800,247.766 290.800 C 248.902 290.800,250.905 290.515,252.216 290.167 C 253.527 289.818,257.304 288.848,260.609 288.010 C 291.794 280.105,311.449 263.157,320.460 236.400 C 323.239 228.149,324.636 222.679,325.161 218.000 C 325.371 216.130,325.735 214.093,325.971 213.474 C 326.652 211.687,326.550 183.328,325.856 181.350 C 325.557 180.498,325.187 178.720,325.034 177.400 C 324.163 169.869,316.751 153.870,311.413 148.000 C 306.857 142.989,306.227 140.589,307.960 134.844 C 308.668 132.497,309.218 129.564,309.373 127.312 C 309.513 125.284,309.891 122.876,310.213 121.962 C 310.962 119.841,310.966 116.170,310.222 114.062 C 309.904 113.160,309.529 110.843,309.390 108.911 C 308.792 100.647,305.678 91.081,303.160 89.780 C 300.171 88.234,287.546 89.802,282.478 92.349 C 281.665 92.757,280.280 93.321,279.400 93.602 C 276.865 94.410,266.003 99.767,263.783 101.303 C 262.674 102.071,260.964 103.107,259.983 103.605 C 259.002 104.103,256.871 105.386,255.246 106.455 C 251.295 109.054,249.869 109.412,246.690 108.600 C 239.317 106.718,238.027 106.427,236.118 106.212 C 234.973 106.083,233.285 105.712,232.368 105.389 C 231.450 105.065,229.495 104.800,228.023 104.800 C 226.550 104.800,224.008 104.444,222.373 104.009 C 217.825 102.800,182.575 102.800,178.027 104.009 C 176.378 104.448,173.773 104.800,172.177 104.800 C 170.595 104.800,168.550 105.065,167.632 105.389 C 166.715 105.712,165.027 106.094,163.882 106.236 C 162.737 106.379,159.385 107.107,156.433 107.853 C 149.663 109.566,149.599 109.553,142.927 105.137 C 137.272 101.394,126.202 95.623,121.289 93.856 C 119.688 93.280,117.814 92.518,117.124 92.161 C 112.613 89.828,99.536 88.265,96.876 89.741 " stroke="none" fill="#fcfcfc" fill-rule="evenodd"></path><path id="path1" d="M126.374 0.590 C 125.810 0.897,123.470 1.765,121.174 2.518 C 118.878 3.271,114.825 4.979,112.168 6.313 C 109.510 7.647,106.270 9.045,104.968 9.420 C 102.517 10.125,99.984 11.407,97.650 13.124 C 96.907 13.670,95.107 14.748,93.650 15.518 C 92.192 16.289,90.550 17.268,90.000 17.695 C 87.992 19.253,84.926 21.184,81.800 22.861 C 80.040 23.805,77.790 25.325,76.800 26.238 C 75.810 27.151,74.280 28.265,73.400 28.714 C 72.520 29.163,71.170 30.192,70.400 31.001 C 69.630 31.810,68.190 32.892,67.200 33.407 C 66.168 33.943,63.096 36.669,60.000 39.796 C 56.981 42.845,53.983 45.512,53.200 45.845 C 51.380 46.618,49.000 48.936,47.703 51.200 C 47.136 52.190,43.842 55.880,40.383 59.400 C 36.924 62.920,33.726 66.532,33.276 67.427 C 32.826 68.321,32.162 69.299,31.800 69.600 C 31.438 69.901,30.772 70.879,30.320 71.773 C 29.868 72.668,28.730 74.227,27.792 75.237 C 26.853 76.248,25.771 77.688,25.387 78.437 C 25.003 79.187,24.174 80.391,23.545 81.114 C 22.915 81.837,22.400 82.672,22.400 82.970 C 22.400 83.269,21.680 84.384,20.800 85.449 C 19.920 86.514,19.200 87.603,19.200 87.868 C 19.200 88.133,18.665 88.937,18.010 89.653 C 17.356 90.370,14.812 95.016,12.358 99.978 C 9.903 104.940,6.994 110.789,5.892 112.975 C 4.790 115.161,3.653 117.771,3.365 118.775 C 2.374 122.233,1.527 124.604,0.760 126.062 C -0.332 128.140,-0.255 272.337,0.840 274.018 C 1.191 274.558,1.610 275.720,1.769 276.600 C 1.929 277.480,2.292 278.563,2.577 279.006 C 2.862 279.449,3.227 280.439,3.389 281.206 C 3.765 282.992,16.427 308.685,17.694 310.233 C 18.219 310.875,19.147 312.266,19.756 313.325 C 20.364 314.383,21.102 315.341,21.395 315.453 C 21.688 315.566,22.037 316.092,22.170 316.622 C 22.303 317.152,22.924 318.174,23.550 318.893 C 24.177 319.612,25.007 320.830,25.396 321.600 C 25.785 322.370,26.980 323.934,28.052 325.076 C 29.123 326.218,30.000 327.423,30.000 327.753 C 30.000 328.084,30.965 329.400,32.145 330.677 C 33.324 331.955,34.661 333.720,35.116 334.600 C 36.191 336.683,65.523 365.788,68.172 367.400 C 73.003 370.341,73.952 371.022,76.450 373.340 C 79.471 376.145,81.797 377.763,85.800 379.847 C 87.340 380.649,89.127 381.747,89.772 382.287 C 92.313 384.417,115.976 395.827,122.262 397.953 L 128.324 400.004 200.662 399.899 L 273.000 399.793 278.289 397.903 C 283.814 395.929,306.191 385.015,307.196 383.804 C 307.504 383.433,309.306 382.351,311.200 381.400 C 313.094 380.449,314.889 379.374,315.190 379.012 C 315.490 378.650,316.291 378.120,316.968 377.835 C 317.646 377.549,318.982 376.660,319.938 375.858 C 320.894 375.056,321.920 374.400,322.218 374.400 C 322.516 374.400,323.624 373.576,324.680 372.569 C 325.736 371.561,327.283 370.384,328.117 369.952 C 328.951 369.520,330.384 368.439,331.301 367.549 C 332.218 366.659,333.605 365.603,334.384 365.202 C 335.163 364.801,338.334 361.956,341.431 358.880 C 344.528 355.803,347.768 352.925,348.631 352.482 C 350.465 351.542,351.631 350.347,352.612 348.400 C 353.000 347.630,356.126 344.168,359.559 340.707 C 362.992 337.246,366.160 333.736,366.600 332.907 C 367.040 332.078,368.131 330.641,369.025 329.714 C 369.919 328.786,370.908 327.526,371.224 326.914 C 371.539 326.301,372.473 324.929,373.298 323.864 C 374.124 322.799,374.800 321.706,374.800 321.434 C 374.800 321.162,375.252 320.515,375.803 319.997 C 376.355 319.478,377.448 317.703,378.232 316.052 C 379.015 314.401,380.499 312.118,381.528 310.979 C 383.662 308.617,396.104 284.242,396.627 281.400 C 396.788 280.520,397.146 279.440,397.421 279.000 C 397.696 278.560,398.051 277.570,398.210 276.800 C 398.368 276.030,398.838 274.728,399.253 273.908 C 399.987 272.459,400.005 270.286,399.904 198.908 L 399.800 125.400 398.304 122.623 C 397.481 121.095,396.691 119.205,396.549 118.423 C 396.235 116.691,385.163 94.493,383.813 92.889 C 383.284 92.259,382.215 90.479,381.439 88.933 C 380.663 87.387,379.737 85.879,379.380 85.583 C 379.023 85.287,378.385 84.308,377.961 83.407 C 377.538 82.506,376.653 81.180,375.996 80.460 C 375.338 79.740,374.800 78.902,374.800 78.598 C 374.800 78.294,373.835 77.000,372.655 75.723 C 371.476 74.445,370.139 72.668,369.684 71.773 C 369.230 70.879,368.561 69.900,368.198 69.598 C 367.835 69.297,367.115 68.229,366.598 67.225 C 366.032 66.127,363.250 63.011,359.609 59.400 C 356.255 56.073,353.106 52.573,352.540 51.543 C 351.979 50.522,351.196 49.532,350.800 49.343 C 350.404 49.154,349.469 48.190,348.724 47.200 C 347.978 46.210,346.504 44.930,345.447 44.355 C 344.390 43.781,341.787 41.594,339.663 39.496 C 337.538 37.398,335.170 35.366,334.400 34.980 C 333.630 34.594,331.830 33.158,330.400 31.789 C 328.970 30.420,327.187 28.988,326.438 28.607 C 325.688 28.226,324.698 27.558,324.238 27.123 C 323.777 26.687,322.770 25.984,322.000 25.560 C 320.615 24.799,318.103 23.109,315.000 20.852 C 314.120 20.212,312.130 19.054,310.577 18.278 C 309.024 17.502,307.501 16.563,307.192 16.191 C 306.437 15.280,284.927 4.555,281.400 3.330 C 279.860 2.795,277.790 2.125,276.800 1.841 C 275.810 1.557,274.424 1.027,273.720 0.662 C 271.925 -0.266,128.079 -0.337,126.374 0.590 M111.292 90.356 C 113.810 90.992,116.434 91.804,117.124 92.161 C 117.814 92.518,119.688 93.280,121.289 93.856 C 126.202 95.623,137.272 101.394,142.927 105.137 C 149.599 109.553,149.663 109.566,156.433 107.853 C 159.385 107.107,162.737 106.379,163.882 106.236 C 165.027 106.094,166.715 105.712,167.632 105.389 C 168.550 105.065,170.595 104.800,172.177 104.800 C 173.773 104.800,176.378 104.448,178.027 104.009 C 182.575 102.800,217.825 102.800,222.373 104.009 C 224.008 104.444,226.550 104.800,228.023 104.800 C 229.495 104.800,231.450 105.065,232.368 105.389 C 233.285 105.712,234.973 106.083,236.118 106.212 C 238.027 106.427,239.317 106.718,246.690 108.600 C 249.869 109.412,251.295 109.054,255.246 106.455 C 256.871 105.386,259.002 104.103,259.983 103.605 C 260.964 103.107,262.674 102.071,263.783 101.303 C 266.003 99.767,276.865 94.410,279.400 93.602 C 280.280 93.321,281.665 92.757,282.478 92.349 C 287.546 89.802,300.171 88.234,303.160 89.780 C 305.678 91.081,308.792 100.647,309.390 108.911 C 309.529 110.843,309.904 113.160,310.222 114.062 C 310.966 116.170,310.962 119.841,310.213 121.962 C 309.891 122.876,309.513 125.284,309.373 127.312 C 309.218 129.564,308.668 132.497,307.960 134.844 C 306.227 140.589,306.857 142.989,311.413 148.000 C 316.751 153.870,324.163 169.869,325.034 177.400 C 325.187 178.720,325.557 180.498,325.856 181.350 C 326.550 183.328,326.652 211.687,325.971 213.474 C 325.735 214.093,325.371 216.130,325.161 218.000 C 324.636 222.679,323.239 228.149,320.460 236.400 C 317.303 245.776,316.825 246.757,311.700 254.400 C 300.206 271.543,284.304 282.004,260.609 288.010 C 257.304 288.848,253.527 289.818,252.216 290.167 C 250.905 290.515,248.902 290.800,247.766 290.800 C 246.630 290.800,245.003 291.044,244.150 291.343 C 243.298 291.642,241.700 292.020,240.600 292.183 C 236.314 292.818,236.032 294.261,239.445 298.085 C 243.852 303.023,248.400 314.856,248.400 321.386 C 248.400 323.803,248.665 325.930,249.200 327.800 C 249.964 330.471,250.000 331.797,250.000 357.068 L 250.000 383.539 249.016 384.708 C 248.066 385.837,243.814 387.600,242.042 387.600 C 241.634 387.600,240.513 387.880,239.550 388.223 C 238.588 388.566,236.180 389.008,234.200 389.204 C 232.220 389.401,229.616 389.840,228.413 390.181 C 226.972 390.589,224.516 390.801,221.213 390.804 C 217.931 390.807,215.522 391.014,214.236 391.404 C 211.376 392.272,187.102 392.265,184.236 391.396 C 183.150 391.066,180.733 390.800,178.824 390.800 C 176.898 390.800,174.408 390.524,173.187 390.175 C 171.984 389.832,169.110 389.396,166.800 389.206 C 162.497 388.853,155.699 386.943,153.413 385.445 C 151.674 384.306,151.600 383.530,151.600 366.400 C 151.600 346.448,151.570 346.338,146.581 347.788 C 145.424 348.125,143.322 348.400,141.911 348.400 C 140.500 348.400,138.008 348.756,136.373 349.191 C 132.540 350.210,124.957 350.308,122.350 349.371 C 121.388 349.026,119.250 348.650,117.600 348.537 C 111.969 348.150,104.081 344.880,96.285 339.699 C 90.419 335.801,88.479 333.083,81.298 318.706 C 77.143 310.387,75.929 308.314,73.794 305.891 C 72.393 304.301,70.832 302.383,70.324 301.629 C 69.393 300.248,64.704 296.339,61.000 293.858 C 52.730 288.318,52.862 284.689,61.341 284.481 C 73.250 284.188,82.814 290.505,92.409 305.000 C 100.495 317.215,108.506 323.507,117.913 325.029 C 119.798 325.334,121.983 325.801,122.770 326.067 C 124.847 326.767,131.781 326.664,134.200 325.897 C 135.300 325.548,137.240 325.145,138.511 325.001 C 141.046 324.714,148.350 322.387,149.898 321.373 C 150.989 320.658,152.607 317.317,153.007 314.951 C 153.969 309.270,157.127 302.658,161.389 297.400 C 164.107 294.046,163.456 292.660,158.936 292.182 C 157.431 292.023,155.390 291.649,154.400 291.351 C 153.410 291.053,152.044 290.807,151.364 290.804 C 150.684 290.802,149.244 290.528,148.164 290.195 C 147.084 289.862,144.896 289.403,143.303 289.174 C 135.454 288.047,117.125 280.554,108.400 274.905 C 101.470 270.418,90.154 258.208,86.803 251.600 C 86.301 250.610,85.401 249.080,84.802 248.200 C 82.669 245.065,77.178 230.128,76.641 226.000 C 76.483 224.790,76.109 222.900,75.810 221.800 C 75.510 220.700,75.152 218.528,75.015 216.974 C 74.878 215.419,74.504 213.276,74.183 212.210 C 73.449 209.772,73.326 185.556,74.038 183.726 C 74.279 183.107,74.709 181.160,74.993 179.400 C 75.710 174.963,76.702 170.963,77.673 168.600 C 78.124 167.500,79.070 165.070,79.775 163.200 C 80.479 161.330,81.943 158.425,83.028 156.743 C 84.112 155.062,85.495 152.812,86.100 151.743 C 86.705 150.675,88.196 148.540,89.412 147.000 C 90.629 145.460,92.089 143.257,92.657 142.105 L 93.689 140.010 92.188 135.161 L 90.687 130.312 90.681 118.248 C 90.676 107.085,90.743 105.902,91.582 102.392 C 93.524 94.267,94.976 90.795,96.876 89.741 C 98.683 88.738,106.147 89.057,111.292 90.356 " stroke="none" fill="#040404" fill-rule="evenodd"></path></g></svg>