<svg id="svg" version="1.1" xmlns="http://www.w3.org/2000/svg" xmlns:xlink="http://www.w3.org/1999/xlink" width="400" height="400" viewBox="0, 0, 400,400"><g id="svgg"><path id="path0" d="M284.000 122.148 C 280.306 123.451,276.717 124.814,262.600 130.276 C 253.709 133.717,244.433 137.293,239.200 139.298 C 236.890 140.183,233.020 141.678,230.600 142.621 C 224.322 145.068,214.683 148.789,208.400 151.193 C 205.430 152.329,201.200 153.959,199.000 154.816 C 195.366 156.230,191.782 157.613,179.200 162.459 C 171.394 165.466,170.007 165.998,167.300 167.022 C 165.815 167.584,163.978 168.318,163.218 168.654 C 162.458 168.990,161.018 169.535,160.018 169.865 C 159.018 170.196,156.220 171.244,153.800 172.195 C 151.380 173.146,146.070 175.212,142.000 176.786 C 137.930 178.361,132.800 180.348,130.600 181.202 C 128.400 182.056,123.720 183.858,120.200 185.206 C 111.698 188.462,104.371 191.291,99.000 193.394 C 96.580 194.341,94.150 195.249,93.600 195.411 C 89.828 196.521,84.077 200.317,82.994 202.412 C 80.894 206.472,83.604 209.491,91.600 212.000 C 94.570 212.933,99.430 214.459,102.400 215.393 C 105.370 216.326,110.860 218.037,114.600 219.194 C 118.340 220.351,123.830 222.075,126.800 223.024 C 139.485 227.079,138.252 227.114,145.474 222.498 C 147.853 220.978,152.230 218.203,155.200 216.332 C 158.170 214.461,162.981 211.416,165.891 209.565 C 168.802 207.714,171.772 205.848,172.491 205.418 C 173.211 204.987,177.490 202.303,182.000 199.454 C 186.510 196.604,193.620 192.113,197.800 189.475 C 201.980 186.837,207.200 183.529,209.400 182.123 C 213.240 179.670,217.390 177.057,223.574 173.200 C 225.161 172.210,227.751 170.574,229.330 169.565 C 234.951 165.972,247.851 157.847,250.933 155.959 C 259.941 150.442,263.795 153.701,256.247 160.452 C 254.434 162.073,247.591 168.260,241.039 174.200 C 234.488 180.140,228.007 185.990,226.637 187.200 C 225.267 188.410,217.883 195.070,210.227 202.000 C 202.571 208.930,195.278 215.500,194.021 216.600 C 185.396 224.148,168.052 240.079,167.810 240.676 C 166.977 242.730,166.739 244.364,166.363 250.600 C 165.881 258.596,165.460 264.793,164.748 274.400 C 163.221 294.980,163.930 295.246,179.664 279.998 C 194.561 265.560,196.307 264.000,197.559 264.000 C 198.731 264.000,202.199 266.381,216.234 276.820 C 222.444 281.439,228.852 286.159,243.600 296.978 C 251.769 302.971,256.884 303.780,261.044 299.736 C 263.818 297.040,264.559 294.863,267.420 281.000 C 268.946 273.603,269.068 273.027,269.990 268.800 C 270.446 266.710,271.609 261.220,272.575 256.600 C 273.542 251.980,275.078 244.780,275.989 240.600 C 276.900 236.420,278.257 230.030,279.004 226.400 C 279.751 222.770,280.832 217.640,281.406 215.000 C 281.980 212.360,283.148 206.870,284.001 202.800 C 284.854 198.730,286.115 192.790,286.803 189.600 C 287.491 186.410,288.576 181.280,289.214 178.200 C 289.852 175.120,291.015 169.630,291.798 166.000 C 293.616 157.571,296.169 145.536,297.423 139.480 C 300.524 124.500,295.549 118.076,284.000 122.148 " stroke="none" fill="#fcfcfc" fill-rule="evenodd"></path><path id="path1" d="M148.572 1.580 C 120.454 8.821,89.972 24.222,69.993 41.282 C 69.144 42.007,67.057 43.770,65.354 45.200 C 61.230 48.663,48.459 61.447,45.200 65.374 C 43.770 67.097,41.961 69.248,41.180 70.153 C 36.065 76.087,27.637 88.365,22.117 97.926 C 13.127 113.498,5.774 131.993,0.777 151.600 C -0.464 156.469,-0.416 243.521,0.831 248.729 C 2.608 256.157,6.453 268.006,10.009 277.013 C 16.577 293.647,28.098 313.671,38.348 326.268 C 40.337 328.712,45.000 334.374,47.352 337.200 C 49.598 339.898,60.561 350.705,64.597 354.200 C 68.128 357.257,77.228 364.465,80.200 366.560 C 102.374 382.186,123.761 392.095,149.743 398.780 L 154.486 400.000 199.984 400.000 L 245.481 400.000 250.049 398.838 C 277.652 391.819,302.175 380.113,323.600 363.729 C 328.986 359.611,330.540 358.347,336.859 352.943 C 340.758 349.609,350.007 340.168,354.600 334.835 C 356.360 332.791,358.373 330.454,359.074 329.640 C 360.243 328.282,363.701 323.674,368.503 317.073 C 370.983 313.665,375.487 306.542,377.402 303.000 C 378.235 301.460,379.070 300.001,379.259 299.758 C 380.005 298.796,386.189 286.356,387.888 282.400 C 390.521 276.267,394.572 265.023,396.390 258.800 C 396.679 257.810,397.148 256.261,397.433 255.359 C 397.718 254.456,398.412 251.804,398.975 249.464 L 400.000 245.211 399.989 199.906 L 399.979 154.600 398.963 150.600 C 391.061 119.494,376.459 90.677,357.209 68.200 C 355.890 66.660,353.838 64.230,352.648 62.800 C 348.718 58.078,337.476 47.425,329.553 40.917 C 307.338 22.667,278.496 8.217,250.621 1.370 L 245.042 0.000 199.821 0.014 L 154.600 0.028 148.572 1.580 M293.476 121.775 C 298.257 124.000,299.486 129.514,297.423 139.480 C 296.169 145.536,293.616 157.571,291.798 166.000 C 291.015 169.630,289.852 175.120,289.214 178.200 C 288.576 181.280,287.491 186.410,286.803 189.600 C 286.115 192.790,284.854 198.730,284.001 202.800 C 283.148 206.870,281.980 212.360,281.406 215.000 C 280.832 217.640,279.751 222.770,279.004 226.400 C 278.257 230.030,276.900 236.420,275.989 240.600 C 275.078 244.780,273.542 251.980,272.575 256.600 C 271.609 261.220,270.446 266.710,269.990 268.800 C 269.068 273.027,268.946 273.603,267.420 281.000 C 264.559 294.863,263.818 297.040,261.044 299.736 C 256.884 303.780,251.769 302.971,243.600 296.978 C 228.852 286.159,222.444 281.439,216.234 276.820 C 202.199 266.381,198.731 264.000,197.559 264.000 C 196.307 264.000,194.561 265.560,179.664 279.998 C 163.930 295.246,163.221 294.980,164.748 274.400 C 165.460 264.793,165.881 258.596,166.363 250.600 C 166.739 244.364,166.977 242.730,167.810 240.676 C 168.052 240.079,185.396 224.148,194.021 216.600 C 195.278 215.500,202.571 208.930,210.227 202.000 C 217.883 195.070,225.267 188.410,226.637 187.200 C 228.007 185.990,234.488 180.140,241.039 174.200 C 247.591 168.260,254.434 162.073,256.247 160.452 C 263.795 153.701,259.941 150.442,250.933 155.959 C 247.851 157.847,234.951 165.972,229.330 169.565 C 227.751 170.574,225.161 172.210,223.574 173.200 C 217.390 177.057,213.240 179.670,209.400 182.123 C 207.200 183.529,201.980 186.837,197.800 189.475 C 193.620 192.113,186.510 196.604,182.000 199.454 C 177.490 202.303,173.211 204.987,172.491 205.418 C 171.772 205.848,168.802 207.714,165.891 209.565 C 162.981 211.416,158.170 214.461,155.200 216.332 C 152.230 218.203,147.853 220.978,145.474 222.498 C 138.252 227.114,139.485 227.079,126.800 223.024 C 123.830 222.075,118.340 220.351,114.600 219.194 C 110.860 218.037,105.370 216.326,102.400 215.393 C 99.430 214.459,94.570 212.933,91.600 212.000 C 83.604 209.491,80.894 206.472,82.994 202.412 C 84.077 200.317,89.828 196.521,93.600 195.411 C 94.150 195.249,96.580 194.341,99.000 193.394 C 104.371 191.291,111.698 188.462,120.200 185.206 C 123.720 183.858,128.400 182.056,130.600 181.202 C 132.800 180.348,137.930 178.361,142.000 176.786 C 146.070 175.212,151.380 173.146,153.800 172.195 C 156.220 171.244,159.018 170.196,160.018 169.865 C 161.018 169.535,162.458 168.990,163.218 168.654 C 163.978 168.318,165.815 167.584,167.300 167.022 C 170.007 165.998,171.394 165.466,179.200 162.459 C 191.782 157.613,195.366 156.230,199.000 154.816 C 201.200 153.959,205.430 152.329,208.400 151.193 C 214.683 148.789,224.322 145.068,230.600 142.621 C 233.020 141.678,236.890 140.183,239.200 139.298 C 244.433 137.293,253.709 133.717,262.600 130.276 C 289.886 119.718,289.367 119.861,293.476 121.775 " stroke="none" fill="#040404" fill-rule="evenodd"></path></g></svg>